<?xml version="1.0" standalone="no"?>
<!DOCTYPE svg PUBLIC "-//W3C//DTD SVG 1.1//EN" "http://www.w3.org/Graphics/SVG/1.1/DTD/svg11.dtd">
<svg width="16" height="16" viewBox="0 0 16 16" version="1.1" xmlns="http://www.w3.org/2000/svg" xmlns:xlink="http://www.w3.org/1999/xlink">
    <g class="transform-group">
        <g transform="scale(0.015625, 0.015625)">
            <path d="M102.434776 350.494954 102.434776 350.494954 102.46581 352.19833 102.440164 353.901795C102.413455 355.675895 102.4 357.489989 102.4 359.344087 102.4 383.745523 108.274434 411.549598 120.254693 442.395384 150.659644 520.67955 216.914832 610.551217 308.161879 703.374225 356.765827 752.81763 409.170206 799.829143 461.579521 842.646048 479.903876 857.616519 496.871233 870.955506 512.013918 882.46005 517.23496 886.426699 521.828533 889.862243 525.736442 892.74179 527.954499 894.376167 529.372441 895.406322 529.932205 895.807573L530.991447 896.56686 532.031022 897.352859C518.027251 886.76492 503.808253 886.752967 489.535832 897.701619L490.969528 896.601803 492.441134 895.553253C493.004061 895.152157 494.510695 894.060541 496.897244 892.300798 501.138745 889.173289 506.134486 885.421173 511.820559 881.067085 528.352343 868.407938 546.893319 853.60296 566.930622 836.837473 624.324394 788.815313 681.742992 735.067563 735.057034 677.216444 765.867829 643.783622 794.399314 609.916729 820.197549 575.832503 867.053088 513.927694 898.389018 457.151865 912.021035 408.806617L912.339889 407.675817 912.684605 406.55263C918.569966 387.376358 921.6 367.288073 921.6 346.673431 921.6 234.357108 830.719671 143.36 718.678899 143.36 667.021041 143.36 618.632921 162.641818 581.384098 196.959653L511.999922 260.884217 442.615781 196.959615C405.36703 162.641806 356.978947 143.36 305.321101 143.36 193.280329 143.36 102.4 234.357108 102.4 346.673431 102.4 347.949285 102.411604 349.223151 102.434776 350.494954L102.434776 350.494954ZM0.051768 352.360324C0.017306 350.468839 0 348.573158 0 346.673431 0 177.832565 136.696913 40.96 305.321101 40.96 385.039986 40.96 457.623039 71.551382 511.99996 121.649618 566.376925 71.551396 638.959995 40.96 718.678899 40.96 887.303087 40.96 1024 177.832565 1024 346.673431 1024 377.968927 1019.303577 408.166106 1010.577917 436.596921 991.837915 503.057374 951.666465 571.810889 901.846469 637.632292 750.784326 837.213244 551.86239 978.949143 551.86239 978.949143 529.335684 996.229817 492.77374 996.045682 470.273768 979.033955 470.273768 979.033955 0 641.931741 0 359.344087 0 356.977693 0.017297 354.649932 0.051768 352.360324L0.051768 352.360324 0.051768 352.360324Z" fill="#272636">
            </path>
        </g>
    </g>
</svg>