<svg width="1024" height="1024" xmlns="http://www.w3.org/2000/svg" class="icon">
 <defs>
  <style type="text/css"/>
 </defs>
 <g>
  <title>background</title>
  <rect fill="none" id="canvas_background" height="402" width="582" y="-1" x="-1"/>
 </g>
 <g>
  <title>Layer 1</title>
  <g stroke="null" id="svg_10">
   <path stroke="null" id="svg_1" fill="#EFC75E" d="m368.262253,677.102598c30.940723,31.816797 30.940723,84.088385 0,115.906623c-30.940723,31.816797 -122.10749,73.293319 -153.048212,41.476522s9.392344,-125.564907 40.334475,-157.381704c30.940723,-31.818245 81.220271,-31.818245 112.713738,-0.001441z"/>
   <path stroke="null" id="svg_2" fill="#DEB957" d="m275.991413,661.761866l0,3.408891c0,59.089369 46.964529,107.383673 104.426875,107.383673l2.209546,0c15.471069,-30.681463 10.497824,-69.316041 -14.918318,-95.451832c-24.310669,-25.56741 -61.881452,-30.681463 -91.718102,-15.340732z"/>
   <path stroke="null" id="svg_3" fill="#F26C4F" d="m530.70421,498.697708c94.481787,97.157008 113.266474,235.220703 23.757925,327.263644l-42.544021,43.748638c-89.508542,92.042948 -27.625696,-128.973798 -122.107483,-226.130799s-309.965583,-32.953579 -219.904304,-125.564915l42.544021,-43.748638c89.509951,-92.0415 223.772067,-72.72349 318.253861,24.43207z"/>
   <path stroke="null" id="svg_4" fill="#F4F0D3" d="m843.432083,177.11507c28.73117,29.544688 16.023799,217.039468 -160.231003,398.853242c-114.924692,117.610351 -187.305363,159.086874 -187.305363,159.086874c-76.801172,53.408363 -113.819211,17.04446 -162.441958,-32.953572s-84.535298,-88.06567 -32.046196,-167.041437c0,0 40.887205,-74.998488 155.25916,-193.177227c176.2534,-181.243945 358.034184,-194.879514 386.76536,-164.76788z"/>
   <path stroke="null" id="svg_5" fill="#E8E4C8" d="m526.283703,709.487782c-80.116206,55.112091 -118.792456,17.612847 -169.072011,-34.090354c-50.832292,-52.271588 -87.851733,-91.474554 -33.151677,-173.859218l8.288271,-13.635562c-21.548379,30.113076 -30.940723,47.157528 -30.940723,47.157528c-52.489108,78.975766 -16.575141,117.041957 32.046196,167.041437s85.640786,85.793548 162.441958,32.953572c0,0 34.255749,-19.886397 93.376313,-70.452816c-40.334475,31.818238 -62.988327,44.885413 -62.988327,44.885413z"/>
   <path stroke="null" id="svg_6" fill="#8BA0AB" d="m658.336266,367.451794c27.072959,27.839519 27.072959,72.724939 0,100.565899c-27.072952,27.839512 -70.722454,27.839512 -97.796814,0c-27.072959,-27.839519 -27.072959,-72.724939 0,-100.565899s71.276599,-27.84096 97.796814,0z"/>
   <path stroke="null" id="svg_7" fill="#F26C4F" d="m498.658007,543.583128c13.812844,14.20395 -12.707371,64.770369 -80.116206,134.087858s-108.294631,88.065663 -122.107483,73.293319c-13.812844,-14.20395 3.867764,-56.248866 71.275197,-125.564907c67.960164,-69.316041 116.582903,-96.588614 130.948491,-81.81627z"/>
   <path stroke="null" id="svg_8" fill="#324D5B" d="m609.714935,363.474516c13.812844,0 27.072952,5.681006 37.019441,15.909119c9.945081,10.226672 15.471062,23.863682 15.471062,38.067632s-5.52458,27.839519 -15.471062,38.067639c-9.945081,10.226672 -23.206597,15.909119 -37.019441,15.909119s-27.072959,-5.681006 -37.019448,-15.909119c-9.945081,-10.226672 -15.471062,-23.863682 -15.471062,-38.067639s5.52458,-27.839512 15.471062,-38.067632c9.945081,-10.228113 23.206597,-15.909119 37.019448,-15.909119m0,-17.044453c-17.680615,0 -35.36123,6.817781 -48.621338,21.021731c-27.072959,27.839519 -27.072959,72.724939 0,100.565899c13.260107,13.635562 30.940723,21.021731 48.621338,21.021731s35.361223,-6.817781 48.621331,-21.021731c27.072959,-27.839519 27.072959,-72.724939 0,-100.565899c-13.260107,-14.20395 -30.940723,-21.021731 -48.621331,-21.021731z"/>
   <path stroke="null" id="svg_9" fill="#F26C4F" d="m674.360072,191.320468c4.973245,38.067632 24.863406,78.407379 57.462346,111.929345c28.73117,28.976294 61.882847,48.294303 94.481787,56.248866c36.465303,-93.181164 33.703013,-164.769321 17.127878,-182.38361c-16.023806,-17.044453 -82.325752,-19.884956 -169.072011,14.205398z"/>
  </g>
 </g>
</svg>