<svg width="580" height="400" xmlns="http://www.w3.org/2000/svg">
 <!-- Created with Method Draw - http://github.com/duopixel/Method-Draw/ -->


 <g>
  <title>Layer 1</title>
  <defs>
   <style type="text/css"/>
  </defs>
  <g stroke="null" id="svg_16">
   <path stroke="null" id="svg_4" fill="#FC9C23" d="m297.839712,116.382423l21.870844,41.570008c1.17766,2.250229 3.469892,3.809597 6.119629,4.184635l48.893954,6.671731c6.666401,0.907986 9.337166,8.606135 4.500347,13.027637l-35.371884,32.371706c-1.913699,1.756757 -2.796944,4.28333 -2.334292,6.770425l8.348774,45.695428c1.135602,6.237475 -5.846244,10.994536 -11.797638,8.053448l-43.741686,-21.594296c-2.376352,-1.164592 -5.194326,-1.164592 -7.570678,0l-43.720656,21.574559c-5.972424,2.941087 -12.95427,-1.815975 -11.797638,-8.05345l8.348774,-45.695428c0.462652,-2.487095 -0.420593,-5.013666 -2.334292,-6.770423l-35.371884,-32.371708c-4.836821,-4.4215 -2.166055,-12.11965 4.500347,-13.027637l48.872924,-6.651992c2.649737,-0.355298 4.941969,-1.914667 6.119629,-4.184635l21.870844,-41.570008c2.986212,-5.665049 11.608371,-5.665049 14.594582,0z"/>
   <path stroke="null" id="svg_5" fill="#EA800C" d="m341.875815,221.215431l8.285684,45.715167c1.135602,6.237475 -5.846244,10.994536 -11.818666,8.03371l-43.699627,-21.633776m31.628603,-91.390854l48.830864,7.046767c6.666401,0.967204 9.25305,8.685093 4.395199,13.067117l-35.666299,32.095362m-82.457286,-56.058322l21.807756,-41.609486c2.98621,-5.684786 11.608371,-5.684786 14.594581,-0.019737l21.912903,41.570008m-82.415226,55.959627l-35.750418,-31.996669c-4.87888,-4.362285 -2.313262,-12.099913 4.353139,-13.067115l48.788804,-7.18494m32.301554,91.193466l-43.720657,21.574559c-5.972422,2.941088 -12.954268,-1.815975 -11.797638,-8.05345l8.348775,-45.695428"/>
   <path stroke="null" id="svg_6" fill="#FFFFFF" d="m290.668599,144.411583m-3.154447,0a3.154449,2.960827 0 1 0 6.308897,0a3.154449,2.960827 0 1 0 -6.308897,0z"/>
   <path stroke="null" id="svg_7" fill="#FFFFFF" d="m257.084237,244.961263m-3.154449,0a3.154449,2.960827 0 1 0 6.308898,0a3.154449,2.960827 0 1 0 -6.308898,0z"/>
   <path stroke="null" id="svg_8" fill="#FFFFFF" d="m350.603121,182.112778m-3.154447,0a3.154449,2.960827 0 1 0 6.308897,0a3.154449,2.960827 0 1 0 -6.308897,0z"/>
   <path stroke="null" id="svg_9" fill="#FFFFFF" d="m327.260202,245.86925m-3.154449,0a3.154449,2.960827 0 1 0 6.308898,0a3.154449,2.960827 0 1 0 -6.308898,0z"/>
   <path stroke="null" id="svg_10" fill="#FFFFFF" d="m235.402661,183.158937m-3.154449,0a3.154449,2.960827 0 1 0 6.308898,0a3.154449,2.960827 0 1 0 -6.308898,0z"/>
   <path stroke="null" id="svg_11" fill="#FFFFFF" d="m275.569306,236.078782m-3.154449,0a3.154449,2.960827 0 1 0 6.308897,0a3.154449,2.960827 0 1 0 -6.308897,0z"/>
   <path stroke="null" id="svg_12" fill="#FFFFFF" d="m310.688833,239.039609m-3.154449,0a3.154449,2.960827 0 1 0 6.308898,0a3.154449,2.960827 0 1 0 -6.308898,0z"/>
   <path stroke="null" id="svg_13" fill="#FFFFFF" d="m339.0999,193.817914m-3.154449,0a3.154449,2.960827 0 1 0 6.308897,0a3.154449,2.960827 0 1 0 -6.308897,0z"/>
   <path stroke="null" id="svg_14" fill="#FFFFFF" d="m303.559779,155.524554m-3.154449,0a3.154449,2.960827 0 1 0 6.308898,0a3.154449,2.960827 0 1 0 -6.308898,0z"/>
   <path stroke="null" id="svg_15" fill="#FFFFFF" d="m252.457713,175.263399m-3.154449,0a3.154449,2.960827 0 1 0 6.308897,0a3.154449,2.960827 0 1 0 -6.308897,0z"/>
  </g>
 </g>
</svg>